<svg width="539" height="620" viewBox="0 0 539 620" fill="none" xmlns="http://www.w3.org/2000/svg">
<path d="M5 157.47V462.4L269.07 614.86L533.15 462.4V157.47L269.07 5L5 157.47Z" fill="#161E2D"/>
<mask id="mask0_4253_242" style="mask-type:luminance" maskUnits="userSpaceOnUse" x="9" y="9" width="520" height="602">
<path d="M9 159.505V460.505L268.803 611L528.617 460.505V159.505L268.803 9L9 159.505Z" fill="white"/>
</mask>
<g mask="url(#mask0_4253_242)">
<path d="M508.311 327.5C506.613 330.708 505.592 334.231 505.311 337.85C501.73 334.659 497.303 332.572 492.563 331.84C487.823 331.109 482.973 331.764 478.597 333.727C474.22 335.69 470.506 338.876 467.9 342.903C465.294 346.93 463.909 351.624 463.911 356.42C463.911 356.84 463.911 357.25 463.911 357.66C462.321 356.924 460.601 356.509 458.85 356.438C457.1 356.367 455.352 356.642 453.707 357.246C452.063 357.851 450.553 358.773 449.265 359.961C447.977 361.149 446.936 362.58 446.201 364.17C445.495 365.688 445.088 367.328 445.001 369C441.538 369.586 438.419 371.442 436.253 374.207C434.087 376.972 433.031 380.445 433.291 383.947C433.551 387.449 435.109 390.729 437.659 393.143C440.21 395.557 443.57 396.932 447.081 397H501.731" fill="#161E2D"/>
<path d="M508.311 327.5C506.613 330.708 505.592 334.231 505.311 337.85C501.73 334.659 497.303 332.572 492.563 331.84C487.823 331.109 482.973 331.764 478.597 333.727C474.22 335.69 470.506 338.876 467.9 342.903C465.294 346.93 463.909 351.624 463.911 356.42C463.911 356.84 463.911 357.25 463.911 357.66C462.321 356.924 460.601 356.509 458.85 356.438C457.1 356.367 455.352 356.642 453.707 357.246C452.063 357.851 450.553 358.773 449.265 359.961C447.977 361.149 446.936 362.58 446.201 364.17C445.495 365.688 445.088 367.328 445.001 369C441.538 369.586 438.419 371.442 436.253 374.207C434.087 376.972 433.031 380.445 433.291 383.947C433.551 387.449 435.109 390.729 437.659 393.143C440.21 395.557 443.57 396.932 447.081 397H501.731" stroke="#A166FF" stroke-width="4" stroke-linejoin="round"/>
<path d="M514.61 319.68C512.858 321.179 511.308 322.9 510 324.8L514.61 319.68Z" fill="#161E2D"/>
<path d="M514.61 319.68C512.858 321.179 511.308 322.9 510 324.8" stroke="#A166FF" stroke-width="4" stroke-linejoin="round"/>
<path d="M444.932 369.81C444.93 366.949 445.845 364.162 447.543 361.859C449.241 359.556 451.633 357.858 454.367 357.015C457.101 356.171 460.034 356.226 462.735 357.172C465.435 358.118 467.761 359.905 469.372 362.27" fill="#161E2D"/>
<path d="M444.932 369.81C444.93 366.949 445.845 364.162 447.543 361.859C449.241 359.556 451.633 357.858 454.367 357.015C457.101 356.171 460.034 356.226 462.735 357.172C465.435 358.118 467.761 359.905 469.372 362.27" stroke="#A166FF" stroke-width="4" stroke-linejoin="round"/>
<path d="M558.601 338.63C558.347 333.853 556.816 329.232 554.167 325.249C551.518 321.265 547.849 318.066 543.542 315.984C539.236 313.902 534.449 313.014 529.682 313.413C524.915 313.811 520.343 315.482 516.441 318.25" fill="#161E2D"/>
<path d="M558.601 338.63C558.347 333.853 556.816 329.232 554.167 325.249C551.518 321.265 547.849 318.066 543.542 315.984C539.236 313.902 534.449 313.014 529.682 313.413C524.915 313.811 520.343 315.482 516.441 318.25" stroke="#A166FF" stroke-width="4" stroke-linejoin="round"/>
<path d="M510.67 398.46H555.2" stroke="#A166FF" stroke-width="4" stroke-linejoin="round"/>
<path d="M49.9108 354.3C46.3566 351.463 42.1338 349.585 37.6464 348.846C33.159 348.107 28.557 348.532 24.2808 350.08C24.0838 346.374 23.1584 342.742 21.5575 339.394C19.9566 336.045 17.7114 333.045 14.9505 330.565C12.1895 328.084 8.96679 326.172 5.46651 324.937C1.96623 323.703 -1.74301 323.17 -5.44922 323.37" fill="#161E2D"/>
<path d="M49.9108 354.3C46.3566 351.463 42.1338 349.585 37.6464 348.846C33.159 348.107 28.557 348.532 24.2808 350.08C24.0838 346.374 23.1584 342.742 21.5575 339.394C19.9566 336.045 17.7114 333.045 14.9505 330.565C12.1895 328.084 8.96679 326.172 5.46651 324.937C1.96623 323.703 -1.74301 323.17 -5.44922 323.37" stroke="#A166FF" stroke-width="4" stroke-linejoin="round"/>
<path d="M75.1109 372.82C73.0577 370.62 70.3936 369.084 67.4609 368.41L75.1109 372.82Z" fill="#161E2D"/>
<path d="M75.1109 372.82C73.0577 370.62 70.3936 369.084 67.4609 368.41" stroke="#A166FF" stroke-width="4" stroke-linejoin="round"/>
<path d="M-3.36914 411.82H79.1909C82.9039 411.82 86.4648 410.345 89.0904 407.719C91.7159 405.094 93.1909 401.533 93.1909 397.82C93.1909 394.107 91.7159 390.546 89.0904 387.92C86.4648 385.295 82.9039 383.82 79.1909 383.82C79.1909 383.58 79.1909 383.35 79.1909 383.11C79.1947 380.384 78.4585 377.709 77.0609 375.37" fill="#161E2D"/>
<path d="M-3.36914 411.82H79.1909C82.9039 411.82 86.4648 410.345 89.0904 407.719C91.7159 405.094 93.1909 401.533 93.1909 397.82C93.1909 394.107 91.7159 390.546 89.0904 387.92C86.4648 385.295 82.9039 383.82 79.1909 383.82C79.1909 383.58 79.1909 383.35 79.1909 383.11C79.1947 380.384 78.4585 377.709 77.0609 375.37" stroke="#A166FF" stroke-width="4" stroke-linejoin="round"/>
<path d="M81.2814 372.82L118.571 372.75C120.144 372.619 121.675 372.176 123.074 371.445C124.473 370.715 125.712 369.712 126.718 368.495C127.724 367.279 128.476 365.874 128.931 364.363C129.386 362.851 129.534 361.264 129.367 359.695C129.199 358.125 128.72 356.605 127.957 355.224C127.193 353.842 126.162 352.628 124.922 351.651C123.682 350.674 122.26 349.955 120.738 349.535C119.217 349.116 117.626 349.005 116.061 349.21C115.323 349.291 114.593 349.438 113.881 349.65C113.168 347.407 111.918 345.372 110.24 343.722C108.563 342.072 106.508 340.855 104.254 340.178C102 339.502 99.6149 339.385 97.3055 339.838C94.9962 340.291 92.8323 341.301 91.0014 342.78C90.5766 340.716 89.7494 338.756 88.5672 337.012C87.385 335.268 85.8708 333.774 84.1111 332.615C82.3514 331.456 80.3807 330.655 78.3115 330.258C76.2423 329.861 74.1151 329.875 72.0514 330.3C69.9877 330.725 68.0278 331.552 66.2838 332.734C64.5397 333.916 63.0456 335.43 61.8867 337.19C60.7279 338.95 59.9269 340.92 59.5297 342.99C59.1324 345.059 59.1466 347.186 59.5714 349.25L59.6914 349.77C58.2151 350.274 56.8549 351.07 55.6914 352.11" stroke="white" stroke-width="4" stroke-linejoin="round"/>
<path d="M85.6309 354C85.6415 350.17 87.171 346.501 89.8838 343.797C92.5965 341.094 96.271 339.577 100.101 339.58" stroke="white" stroke-width="4" stroke-linejoin="round"/>
</g>
<path d="M93.6602 235.2H125.69" stroke="white" stroke-width="7" stroke-miterlimit="10" stroke-linecap="round"/>
<path d="M109.68 219.19V251.21" stroke="white" stroke-width="7" stroke-miterlimit="10" stroke-linecap="round"/>
<path d="M163.961 111.73H182.981" stroke="#A166FF" stroke-width="7" stroke-miterlimit="10" stroke-linecap="round"/>
<path d="M173.471 102.23V121.24" stroke="#A166FF" stroke-width="7" stroke-miterlimit="10" stroke-linecap="round"/>
<path d="M429.77 266.87H462.16" stroke="#A166FF" stroke-width="7" stroke-linecap="round" stroke-linejoin="round"/>
<path d="M445.971 250.67V283.06" stroke="#A166FF" stroke-width="7" stroke-linecap="round" stroke-linejoin="round"/>
<path d="M5 157.47V462.4L269.07 614.86L533.15 462.4V157.47L269.07 5L5 157.47Z" stroke="#A166FF" stroke-width="10" stroke-linejoin="round"/>
<path d="M273 558.56H302.12" stroke="#A166FF" stroke-width="7" stroke-linecap="round" stroke-linejoin="round"/>
<path d="M287.559 544V573.12" stroke="#A166FF" stroke-width="7" stroke-linecap="round" stroke-linejoin="round"/>
<path d="M380.17 157.81H399.19" stroke="white" stroke-width="7" stroke-miterlimit="10" stroke-linecap="round"/>
<path d="M389.68 148.3V167.32" stroke="white" stroke-width="7" stroke-miterlimit="10" stroke-linecap="round"/>
<path d="M234 526.51H253.02" stroke="#A166FF" stroke-width="7" stroke-miterlimit="10" stroke-linecap="round"/>
<path d="M243.51 517V536.02" stroke="#A166FF" stroke-width="7" stroke-miterlimit="10" stroke-linecap="round"/>
<path d="M157 433.202C160.509 431.667 165.089 429.536 170.431 426.891M332.667 440.272V339.89H248.192V378.417C238.942 385.881 228.889 392.962 218.855 399.439M351.754 440.272L344.331 350.494L343.271 341.304" stroke="white" stroke-width="4" stroke-linecap="round" stroke-linejoin="round"/>
<path d="M327.351 194.973C326.181 193.97 325.722 192.729 325.452 191.439M325.452 191.439C325.151 190.001 325.083 188.501 324.524 187.197C323.464 184.723 325.938 183.663 326.645 186.137C327.21 188.116 337.249 195.209 342.197 198.508C345.614 200.039 352.942 203.951 354.921 207.344C357.396 211.586 363.404 219.362 364.111 220.775C364.818 222.189 373.301 226.784 376.482 228.905C379.663 231.026 378.249 232.439 376.482 235.267C375.068 237.529 370.945 237.152 369.06 236.681L355.742 232.03M325.452 191.439C320.783 189.789 302.255 191.439 296.601 197.094C288.826 204.87 288.133 209.818 288.133 213.706M311.799 316.915C336.188 305.251 345.21 301.01 348.205 283.337C350.901 267.432 337.248 252.94 330.179 249.052C323.228 245.635 309.113 236.61 308.265 227.845C307.204 216.887 317.455 215.827 319.575 218.301C321.272 220.281 321.696 222.189 321.696 222.896C332.653 222.543 330.179 228.905 335.834 233.5C341.49 238.095 342.197 249.052 345.378 251.526C347.922 253.505 349.03 250.701 349.266 249.052L346.791 228.905L349.266 229.769M355.742 232.03C356.058 232.049 356.83 233.217 357.395 237.741C358.102 243.397 357.748 243.75 360.93 244.81C358.927 245.517 354.638 245.588 353.507 240.216C352.093 233.5 351.74 230.633 349.266 229.769M355.742 232.03L349.266 229.769" stroke="white" stroke-width="4" stroke-linecap="round" stroke-linejoin="round"/>
<path d="M331.962 204.87C330.666 203.928 327.367 202.113 324.539 202.396C321.711 202.679 316.999 200.864 314.996 199.922M314.996 199.922C316.763 200.982 320.722 203.598 322.418 205.577C324.539 208.051 327.72 204.87 329.841 208.051M314.996 199.922C316.645 202.867 320.651 209.253 323.479 211.232M302.625 262.837C291.824 261.443 274.773 251.395 291.621 222.401M291.621 222.401C291.865 221.981 292.116 221.557 292.375 221.129C287.308 207.344 255.756 182.037 170.078 191.085C183.745 195.562 209.665 209.677 204.01 230.319C213.671 231.379 230.802 239.367 222.036 262.837C228.87 260.245 241.476 259.938 237.235 279.449C240.534 278.271 246.778 279.308 245.364 292.88C249.017 291.702 255.685 291.467 253.14 299.95C249.959 310.553 260.823 257.958 291.621 222.401Z" stroke="white" stroke-width="4" stroke-linecap="round" stroke-linejoin="round"/>
<path d="M355.998 219.008C356.092 218.607 356.148 218.121 356.133 217.594M350.342 212.292C344.687 211.727 342.095 211.35 341.506 211.232M350.342 212.292C354.112 212.669 355.579 214.638 355.998 216.502M350.342 212.292C349.989 214.274 350.625 217.891 355.998 216.502M350.342 212.292C349.372 214.884 349.173 219.573 356.133 217.594M355.998 216.502C356.081 216.875 356.123 217.243 356.133 217.594" stroke="white" stroke-width="2" stroke-linecap="round" stroke-linejoin="round"/>
<path d="M237.59 278.742C244.777 262.012 265.796 227.208 292.376 221.836M292.376 221.836C255.616 217.877 230.167 247.756 222.038 263.19M292.376 221.836C245.719 204.587 213.791 220.304 203.658 230.319" stroke="white" stroke-width="4" stroke-linejoin="round"/>
<path d="M320.65 269.906C327.955 277.211 335.283 295.213 306.159 308.786C305.687 309.728 305.381 312.32 307.926 315.148C311.107 318.683 320.298 331.054 323.479 332.467C326.66 333.881 347.867 333.528 341.505 344.838C338.913 346.959 334.365 349.928 336.91 344.838C339.455 339.749 331.373 338.712 327.013 338.83L313.229 339.89C312.404 339.183 310.472 337.133 309.341 334.588C308.663 333.065 304.827 328.34 300.821 323.631M301.564 295.355L293.435 301.717C286.083 307.655 290.372 313.145 293.435 315.148C295.374 317.323 298.136 320.474 300.821 323.631M243.244 315.148C239.71 317.622 232.853 325.398 233.701 336.709C234.761 350.847 234.761 350.14 239.003 348.373C243.244 346.606 246.425 336.709 251.373 336.709C256.322 336.709 260.21 334.942 260.563 338.83C260.846 341.94 264.923 338.712 266.925 336.709C266.865 336.02 266.752 335.303 266.58 334.588M243.244 336.709C258.978 322.244 265.07 328.333 266.58 334.588M300.821 323.631C290.113 325.87 268.273 331.195 266.58 334.588M282.478 279.449C273.523 285.576 252.292 299.384 239.003 305.605C222.39 313.381 216.735 340.95 217.442 354.028C218.149 367.106 216.735 385.486 195.174 399.624C173.613 413.762 158.414 422.245 172.906 426.133C184.499 429.244 216.852 418.239 231.58 412.348C239.709 408.225 258.16 397.927 266.925 389.727C277.882 379.477 284.952 379.83 290.96 389.727C295.767 397.645 285.894 401.98 280.357 403.159C283.184 405.397 290.749 406.764 298.383 394.322C301.917 387.96 294.495 378.063 288.84 375.942C283.184 373.822 272.58 374.529 261.977 383.718C251.373 392.908 230.166 407.753 201.536 412.348C172.906 416.943 210.019 408.46 216.028 401.391C222.036 394.322 242.183 383.012 244.304 363.925C246.001 348.656 247.603 341.539 248.192 339.89" stroke="white" stroke-width="4" stroke-linecap="round" stroke-linejoin="round"/>
<path d="M122.534 487V465.053H127.284V483.2H136.912V487H122.534ZM139.539 470.817H144.163V488.71C144.163 490.463 143.762 491.761 142.96 492.606C142.157 493.471 140.933 493.904 139.286 493.904C138.167 493.904 137.101 493.735 136.087 493.397V490.262C136.721 490.325 137.322 490.357 137.893 490.357C138.484 490.357 138.906 490.241 139.159 490.009C139.413 489.776 139.539 489.386 139.539 488.837V470.817ZM141.851 468.315C141.049 468.315 140.405 468.093 139.919 467.65C139.434 467.206 139.191 466.605 139.191 465.844C139.191 465.084 139.434 464.483 139.919 464.039C140.405 463.596 141.049 463.374 141.851 463.374C142.654 463.374 143.298 463.596 143.783 464.039C144.269 464.483 144.512 465.084 144.512 465.844C144.512 466.605 144.269 467.206 143.783 467.65C143.298 468.093 142.654 468.315 141.851 468.315ZM159.49 487L159.046 485.29C157.167 486.747 155.204 487.475 153.156 487.475C151.72 487.475 150.601 487.053 149.799 486.208C148.996 485.343 148.595 484.16 148.595 482.661V470.817H153.219V481.363C153.219 483.073 153.958 483.928 155.436 483.928C156.534 483.928 157.611 483.59 158.666 482.915V470.817H163.29V487H159.49ZM167.712 487V463.564H172.335V472.052C172.948 471.524 173.666 471.112 174.489 470.817C175.312 470.5 176.125 470.342 176.928 470.342C178.976 470.342 180.591 471.091 181.773 472.59C182.977 474.089 183.578 476.116 183.578 478.671C183.578 480.339 183.304 481.827 182.755 483.136C182.206 484.445 181.414 485.48 180.38 486.24C179.345 486.979 178.152 487.348 176.801 487.348C175.83 487.348 174.922 487.179 174.077 486.842C173.233 486.504 172.525 486.029 171.955 485.416L171.544 487H167.712ZM175.439 473.825C174.341 473.825 173.307 474.11 172.335 474.68V483.01C173.264 483.58 174.299 483.865 175.439 483.865C176.621 483.865 177.487 483.464 178.036 482.661C178.606 481.859 178.891 480.592 178.891 478.861C178.891 477.108 178.617 475.831 178.068 475.029C177.519 474.226 176.643 473.825 175.439 473.825ZM194.322 486.683C193.435 487.042 192.485 487.222 191.472 487.222C188.621 487.222 187.196 485.628 187.196 482.44V463.564H191.82V482.059C191.82 482.651 191.915 483.073 192.105 483.326C192.316 483.559 192.654 483.675 193.118 483.675C193.414 483.675 193.815 483.643 194.322 483.58V486.683ZM197.622 470.817H202.246V488.71C202.246 490.463 201.844 491.761 201.042 492.606C200.24 493.471 199.015 493.904 197.368 493.904C196.249 493.904 195.183 493.735 194.17 493.397V490.262C194.803 490.325 195.405 490.357 195.975 490.357C196.566 490.357 196.988 490.241 197.242 490.009C197.495 489.776 197.622 489.386 197.622 488.837V470.817ZM199.934 468.315C199.131 468.315 198.487 468.093 198.002 467.65C197.516 467.206 197.273 466.605 197.273 465.844C197.273 465.084 197.516 464.483 198.002 464.039C198.487 463.596 199.131 463.374 199.934 463.374C200.736 463.374 201.38 463.596 201.865 464.039C202.351 464.483 202.594 465.084 202.594 465.844C202.594 466.605 202.351 467.206 201.865 467.65C201.38 468.093 200.736 468.315 199.934 468.315ZM216.084 487L215.704 485.575C215.049 486.166 214.289 486.641 213.423 487C212.579 487.338 211.755 487.507 210.953 487.507C209.391 487.507 208.134 487.063 207.184 486.177C206.255 485.29 205.791 484.107 205.791 482.63C205.791 481.616 206.044 480.729 206.551 479.969C207.058 479.188 207.786 478.576 208.736 478.132C209.686 477.689 210.805 477.467 212.093 477.467C213.107 477.467 214.226 477.605 215.45 477.879V476.296C215.45 475.324 215.25 474.659 214.848 474.3C214.447 473.941 213.708 473.762 212.632 473.762C210.9 473.762 208.989 474.089 206.899 474.744V471.672C207.68 471.271 208.662 470.954 209.845 470.722C211.027 470.468 212.23 470.342 213.455 470.342C215.63 470.342 217.213 470.785 218.205 471.672C219.219 472.537 219.726 473.91 219.726 475.789V487H216.084ZM212.251 484.403C212.779 484.403 213.318 484.287 213.867 484.055C214.437 483.822 214.965 483.506 215.45 483.105V480.349C214.521 480.202 213.687 480.128 212.948 480.128C211.111 480.128 210.193 480.867 210.193 482.345C210.193 482.999 210.372 483.506 210.731 483.865C211.09 484.224 211.597 484.403 212.251 484.403ZM234.481 487V476.391C234.481 475.525 234.291 474.892 233.911 474.49C233.531 474.089 232.95 473.889 232.169 473.889C231.007 473.889 229.857 474.248 228.717 474.965V487H224.093V470.817H227.893L228.337 472.558C230.237 471.081 232.264 470.342 234.417 470.342C235.916 470.342 237.067 470.753 237.869 471.577C238.693 472.379 239.104 473.53 239.104 475.029V487H234.481ZM252.764 487L252.384 485.575C251.729 486.166 250.969 486.641 250.104 487C249.259 487.338 248.436 487.507 247.633 487.507C246.071 487.507 244.815 487.063 243.865 486.177C242.936 485.29 242.471 484.107 242.471 482.63C242.471 481.616 242.724 480.729 243.231 479.969C243.738 479.188 244.466 478.576 245.416 478.132C246.367 477.689 247.486 477.467 248.773 477.467C249.787 477.467 250.906 477.605 252.13 477.879V476.296C252.13 475.324 251.93 474.659 251.529 474.3C251.128 473.941 250.389 473.762 249.312 473.762C247.581 473.762 245.67 474.089 243.58 474.744V471.672C244.361 471.271 245.343 470.954 246.525 470.722C247.707 470.468 248.911 470.342 250.135 470.342C252.31 470.342 253.893 470.785 254.886 471.672C255.899 472.537 256.406 473.91 256.406 475.789V487H252.764ZM248.932 484.403C249.46 484.403 249.998 484.287 250.547 484.055C251.117 483.822 251.645 483.506 252.13 483.105V480.349C251.201 480.202 250.367 480.128 249.629 480.128C247.792 480.128 246.873 480.867 246.873 482.345C246.873 482.999 247.053 483.506 247.412 483.865C247.771 484.224 248.277 484.403 248.932 484.403ZM282.617 465.053H287.367V478.956C287.367 481.679 286.575 483.791 284.992 485.29C283.429 486.789 281.202 487.538 278.309 487.538C275.417 487.538 273.179 486.799 271.595 485.321C270.033 483.822 269.252 481.69 269.252 478.924V465.053H274.002V479.146C274.002 480.624 274.372 481.753 275.111 482.535C275.85 483.295 276.916 483.675 278.309 483.675C279.703 483.675 280.769 483.295 281.508 482.535C282.247 481.753 282.617 480.624 282.617 479.146V465.053ZM298.852 482.535C298.852 482.112 298.725 481.785 298.472 481.553C298.239 481.321 297.754 481.067 297.015 480.793L294.544 479.811C293.257 479.304 292.328 478.681 291.758 477.942C291.187 477.203 290.902 476.264 290.902 475.124C290.902 473.688 291.473 472.537 292.613 471.672C293.774 470.785 295.315 470.342 297.236 470.342C299.01 470.342 300.646 470.69 302.145 471.387V474.459C300.541 473.973 299.042 473.73 297.648 473.73C296.783 473.73 296.149 473.836 295.748 474.047C295.347 474.258 295.146 474.596 295.146 475.06C295.146 475.419 295.262 475.715 295.495 475.947C295.748 476.158 296.265 476.422 297.046 476.739L299.453 477.721C300.762 478.249 301.691 478.861 302.24 479.558C302.81 480.254 303.095 481.162 303.095 482.281C303.095 483.844 302.494 485.11 301.29 486.082C300.108 487.032 298.545 487.507 296.603 487.507C294.428 487.507 292.507 487.074 290.839 486.208V483.136C292.929 483.791 294.84 484.118 296.571 484.118C298.092 484.118 298.852 483.59 298.852 482.535ZM309.534 480.033C309.619 481.426 310.041 482.44 310.801 483.073C311.561 483.685 312.754 483.991 314.38 483.991C315.794 483.991 317.441 483.727 319.32 483.2V486.272C318.581 486.652 317.695 486.947 316.66 487.158C315.647 487.369 314.591 487.475 313.493 487.475C310.812 487.475 308.764 486.747 307.349 485.29C305.956 483.833 305.259 481.701 305.259 478.892C305.259 476.19 305.956 474.089 307.349 472.59C308.743 471.091 310.674 470.342 313.145 470.342C315.235 470.342 316.84 470.922 317.959 472.083C319.099 473.224 319.669 474.86 319.669 476.992C319.669 477.457 319.637 477.985 319.574 478.576C319.51 479.167 319.436 479.653 319.352 480.033H309.534ZM312.986 473.54C311.952 473.54 311.128 473.857 310.516 474.49C309.925 475.103 309.587 476 309.503 477.182H315.71V476.644C315.71 474.575 314.802 473.54 312.986 473.54ZM323.216 487V470.817H327.017L327.587 473.224C328.431 472.295 329.223 471.64 329.962 471.26C330.722 470.859 331.524 470.658 332.369 470.658C332.77 470.658 333.192 470.69 333.636 470.753V475.029C333.045 474.902 332.39 474.839 331.672 474.839C330.3 474.839 329.022 475.082 327.84 475.567V487H323.216ZM355.709 483.611C356.364 483.611 357.145 483.559 358.053 483.453V478.101H353.936V474.68H362.423V485.67C361.431 486.198 360.249 486.609 358.876 486.905C357.504 487.201 356.111 487.348 354.696 487.348C351.276 487.348 348.636 486.388 346.778 484.466C344.942 482.545 344.023 479.811 344.023 476.264C344.023 472.506 344.973 469.645 346.873 467.681C348.795 465.697 351.571 464.704 355.203 464.704C357.694 464.704 359.837 465.137 361.632 466.003V469.613C359.436 468.916 357.462 468.568 355.709 468.568C353.366 468.568 351.645 469.159 350.547 470.342C349.449 471.503 348.9 473.34 348.9 475.852V476.422C348.9 478.914 349.439 480.74 350.516 481.901C351.613 483.041 353.345 483.611 355.709 483.611ZM366.793 487V470.817H370.594L371.164 473.224C372.008 472.295 372.8 471.64 373.539 471.26C374.299 470.859 375.102 470.658 375.946 470.658C376.347 470.658 376.769 470.69 377.213 470.753V475.029C376.622 474.902 375.967 474.839 375.249 474.839C373.877 474.839 372.6 475.082 371.417 475.567V487H366.793ZM386.818 487.475C384.305 487.475 382.341 486.726 380.927 485.226C379.512 483.706 378.805 481.595 378.805 478.892C378.805 476.211 379.512 474.121 380.927 472.622C382.341 471.102 384.305 470.342 386.818 470.342C389.33 470.342 391.294 471.102 392.708 472.622C394.123 474.121 394.83 476.211 394.83 478.892C394.83 481.595 394.123 483.706 392.708 485.226C391.294 486.726 389.33 487.475 386.818 487.475ZM386.818 483.928C389.034 483.928 390.143 482.249 390.143 478.892C390.143 475.557 389.034 473.889 386.818 473.889C384.601 473.889 383.492 475.557 383.492 478.892C383.492 482.249 384.601 483.928 386.818 483.928ZM409.2 487L408.757 485.29C406.878 486.747 404.914 487.475 402.866 487.475C401.431 487.475 400.312 487.053 399.509 486.208C398.707 485.343 398.306 484.16 398.306 482.661V470.817H402.93V481.363C402.93 483.073 403.669 483.928 405.147 483.928C406.244 483.928 407.321 483.59 408.377 482.915V470.817H413.001V487H409.2ZM417.422 493.524V470.817H421.223L421.603 472.337C422.236 471.725 422.996 471.239 423.883 470.88C424.791 470.521 425.709 470.342 426.638 470.342C428.686 470.342 430.301 471.091 431.484 472.59C432.687 474.089 433.289 476.116 433.289 478.671C433.289 480.339 433.014 481.827 432.465 483.136C431.916 484.445 431.125 485.48 430.09 486.24C429.056 486.979 427.863 487.348 426.511 487.348C425.646 487.348 424.822 487.211 424.041 486.937C423.26 486.662 422.595 486.282 422.046 485.797V493.524H417.422ZM425.15 473.825C424.052 473.825 423.017 474.11 422.046 474.68V483.01C422.975 483.58 424.009 483.865 425.15 483.865C426.332 483.865 427.198 483.464 427.747 482.661C428.317 481.859 428.602 480.592 428.602 478.861C428.602 477.108 428.327 475.831 427.778 475.029C427.229 474.226 426.353 473.825 425.15 473.825Z" fill="white"/>
<path d="M244.765 110.222C244.765 111.594 244.914 112.707 245.173 113.523C245.469 114.339 245.84 115.23 246.358 116.194C246.544 116.491 246.618 116.788 246.618 117.047C246.618 117.418 246.396 117.789 245.914 118.16L243.58 119.718C243.247 119.941 242.913 120.052 242.617 120.052C242.246 120.052 241.876 119.866 241.505 119.533C240.987 118.976 240.542 118.383 240.172 117.789C239.801 117.159 239.431 116.454 239.023 115.601C236.134 119.013 232.503 120.719 228.131 120.719C225.019 120.719 222.537 119.829 220.722 118.049C218.907 116.268 217.98 113.894 217.98 110.927C217.98 107.774 219.092 105.214 221.352 103.286C223.612 101.357 226.612 100.392 230.428 100.392C231.688 100.392 232.985 100.504 234.355 100.689C235.726 100.874 237.134 101.171 238.616 101.505V98.7972C238.616 95.9781 238.023 94.0122 236.874 92.8623C235.689 91.7124 233.688 91.156 230.836 91.156C229.539 91.156 228.205 91.3044 226.835 91.6382C225.464 91.972 224.13 92.3801 222.834 92.8994C222.241 93.159 221.796 93.3074 221.537 93.3816C221.278 93.4558 221.092 93.4929 220.944 93.4929C220.426 93.4929 220.166 93.1219 220.166 92.343V90.5254C220.166 89.9319 220.24 89.4868 220.426 89.2271C220.611 88.9675 220.944 88.7078 221.463 88.4482C222.76 87.7805 224.316 87.2241 226.131 86.779C227.946 86.2967 229.873 86.0742 231.91 86.0742C236.319 86.0742 239.542 87.0757 241.616 89.0788C243.654 91.0818 244.691 94.1235 244.691 98.2038V110.222H244.765ZM229.724 115.86C230.947 115.86 232.207 115.638 233.54 115.193C234.874 114.747 236.059 113.931 237.06 112.819C237.652 112.114 238.097 111.335 238.319 110.445C238.542 109.554 238.69 108.479 238.69 107.217V105.66C237.615 105.4 236.467 105.177 235.281 105.029C234.096 104.881 232.947 104.806 231.799 104.806C229.317 104.806 227.502 105.289 226.279 106.29C225.056 107.292 224.464 108.701 224.464 110.556C224.464 112.299 224.908 113.598 225.834 114.488C226.724 115.415 228.02 115.86 229.724 115.86ZM259.473 119.866C258.806 119.866 258.362 119.755 258.065 119.495C257.769 119.273 257.51 118.754 257.287 118.049L248.581 89.3755C248.359 88.6336 248.248 88.1514 248.248 87.8918C248.248 87.2983 248.544 86.9644 249.137 86.9644H252.768C253.472 86.9644 253.953 87.0757 254.212 87.3354C254.509 87.5579 254.731 88.0772 254.953 88.782L261.177 113.338L266.957 88.782C267.142 88.0401 267.364 87.5579 267.661 87.3354C267.957 87.1128 268.476 86.9644 269.142 86.9644H272.106C272.81 86.9644 273.292 87.0757 273.588 87.3354C273.884 87.5579 274.144 88.0772 274.292 88.782L280.145 113.635L286.555 88.782C286.777 88.0401 287.036 87.5579 287.295 87.3354C287.592 87.1128 288.073 86.9644 288.74 86.9644H292.186C292.778 86.9644 293.112 87.2612 293.112 87.8918C293.112 88.0772 293.075 88.2627 293.038 88.4853C293.001 88.7078 292.927 89.0046 292.778 89.4126L283.85 118.086C283.628 118.828 283.368 119.31 283.072 119.533C282.776 119.755 282.294 119.903 281.664 119.903H278.478C277.774 119.903 277.293 119.792 276.996 119.533C276.7 119.273 276.441 118.791 276.292 118.049L270.55 94.1235L264.845 118.012C264.66 118.754 264.437 119.236 264.141 119.495C263.845 119.755 263.326 119.866 262.659 119.866H259.473ZM307.079 120.868C305.152 120.868 303.226 120.645 301.373 120.2C299.521 119.755 298.076 119.273 297.113 118.716C296.52 118.383 296.113 118.012 295.964 117.678C295.816 117.344 295.742 116.973 295.742 116.639V114.747C295.742 113.968 296.039 113.598 296.594 113.598C296.817 113.598 297.039 113.635 297.261 113.709C297.483 113.783 297.817 113.931 298.187 114.08C299.447 114.636 300.818 115.081 302.262 115.378C303.744 115.675 305.189 115.823 306.671 115.823C309.005 115.823 310.82 115.415 312.08 114.599C313.34 113.783 314.006 112.596 314.006 111.075C314.006 110.037 313.673 109.183 313.006 108.479C312.339 107.774 311.08 107.143 309.264 106.55L303.893 104.881C301.188 104.027 299.188 102.766 297.965 101.097C296.742 99.4649 296.113 97.6474 296.113 95.7185C296.113 94.1606 296.446 92.7881 297.113 91.6011C297.78 90.4141 298.669 89.3755 299.78 88.5594C300.892 87.7063 302.151 87.0757 303.633 86.6306C305.115 86.1855 306.671 86 308.301 86C309.116 86 309.968 86.0371 310.783 86.1484C311.635 86.2597 312.413 86.408 313.191 86.5564C313.932 86.7419 314.636 86.9273 315.303 87.1499C315.97 87.3725 316.489 87.595 316.859 87.8176C317.378 88.1143 317.748 88.4111 317.97 88.7449C318.193 89.0417 318.304 89.4497 318.304 89.969V91.7124C318.304 92.4914 318.007 92.8994 317.452 92.8994C317.155 92.8994 316.674 92.751 316.044 92.4543C313.932 91.4898 311.561 91.0076 308.931 91.0076C306.819 91.0076 305.152 91.3415 304.004 92.0462C302.855 92.751 302.262 93.8267 302.262 95.3476C302.262 96.3862 302.633 97.2764 303.374 97.9812C304.115 98.686 305.486 99.3907 307.449 100.021L312.71 101.691C315.377 102.544 317.304 103.731 318.452 105.252C319.6 106.772 320.156 108.516 320.156 110.445C320.156 112.04 319.823 113.486 319.193 114.747C318.526 116.009 317.637 117.121 316.489 118.012C315.34 118.939 313.969 119.607 312.376 120.089C310.709 120.608 308.968 120.868 307.079 120.868Z" fill="white"/>
<path fill-rule="evenodd" clip-rule="evenodd" d="M314.286 138.498C302.027 147.317 284.217 152 268.903 152C247.441 152 228.102 144.269 213.496 131.42C212.341 130.404 213.385 129.024 214.763 129.823C230.562 138.752 250.049 144.16 270.207 144.16C283.807 144.16 298.749 141.401 312.498 135.739C314.547 134.832 316.298 137.046 314.286 138.498Z" fill="white"/>
<path fill-rule="evenodd" clip-rule="evenodd" d="M319.453 132.78C317.874 130.72 309.003 131.788 304.981 132.284C303.778 132.436 303.59 131.369 304.68 130.568C311.747 125.534 323.362 126.983 324.716 128.661C326.069 130.377 324.34 142.161 317.724 147.805C316.709 148.683 315.732 148.225 316.183 147.081C317.686 143.305 321.032 134.801 319.453 132.78Z" fill="white"/>
</svg>
